<svg width="48" height="48" viewBox="0 0 48 48" fill="none" xmlns="http://www.w3.org/2000/svg">
<path d="M24.0672 33.693V41.1349L0.759277 27.68V20.2382L7.20391 23.9591L17.563 29.9386L20.1528 31.4344L24.0672 33.693Z" stroke="url(#paint0_linear_214_2372)" stroke-width="0.186047" stroke-linecap="round" stroke-linejoin="round"/>
<path d="M47.2334 20.3199V27.7618L24.0669 41.1348V33.693L27.9181 31.4716L30.4929 29.9832L40.7887 24.0409L47.2334 20.3199Z" stroke="url(#paint1_linear_214_2372)" stroke-width="0.186047" stroke-linecap="round" stroke-linejoin="round"/>
<path d="M23.9221 6.86511L0.759277 20.2419L7.20391 23.9628L17.563 29.9423L20.1528 31.4382L24.0672 33.6968L27.9183 31.4754L30.4932 29.987L40.789 24.0446L47.2337 20.3237L23.9221 6.86511ZM30.4597 24.0261L29.1834 24.7628L27.8588 24L26.5788 23.2595L24.0039 21.7749L23.9853 21.786L21.4141 23.267L20.1304 24.0075L18.8541 24.7442L17.5332 23.9814L16.2644 23.2483L18.8058 21.7823L21.4141 20.2791L18.8058 18.7721L17.496 18.0167L16.2346 17.2874L18.8058 15.8028L20.0709 16.5321L23.9853 18.7907L27.8402 16.5693L29.1351 15.8214L31.7248 17.3135L30.4262 18.0614L29.1351 18.8093L26.5788 20.2865L29.1351 21.7637L31.7583 23.2782L30.4597 24.0261Z" stroke="url(#paint2_linear_214_2372)" stroke-width="0.186047" stroke-linecap="round" stroke-linejoin="round"/>
<path d="M21.4139 20.2754V23.2633L20.1302 24.0075L18.8539 24.7405L17.533 23.9814L16.2642 23.2447L18.8056 21.7786L21.4139 20.2754Z" stroke="url(#paint3_linear_214_2372)" stroke-width="0.186047" stroke-linecap="round" stroke-linejoin="round"/>
<path d="M18.8055 15.7991V18.7721L17.4958 18.013L16.2344 17.2874L18.8055 15.7991Z" stroke="url(#paint4_linear_214_2372)" stroke-width="0.186047" stroke-linecap="round" stroke-linejoin="round"/>
<path d="M23.9852 18.787V21.7823L21.414 23.2633V20.2754L18.8057 18.7721V15.7991L20.0708 16.5284L23.9852 18.787Z" stroke="url(#paint5_linear_214_2372)" stroke-width="0.186047" stroke-linecap="round" stroke-linejoin="round"/>
<path d="M31.7246 17.3098L30.426 18.0577L29.1348 18.8056V15.8214L31.7246 17.3098Z" stroke="url(#paint6_linear_214_2372)" stroke-width="0.186047" stroke-linecap="round" stroke-linejoin="round"/>
<path d="M29.1351 15.8214V18.8056L26.5788 20.2865V23.2595L24.004 21.7749L23.9854 21.7823V18.787L27.8402 16.5656L29.1351 15.8214Z" stroke="url(#paint7_linear_214_2372)" stroke-width="0.186047" stroke-linecap="round" stroke-linejoin="round"/>
<path d="M31.7581 23.2744L30.4595 24.026L29.1833 24.7591L27.8586 23.9963L26.5786 23.2595V20.2865L29.1349 21.76L31.7581 23.2744Z" stroke="url(#paint8_linear_214_2372)" stroke-width="0.186047" stroke-linecap="round" stroke-linejoin="round"/>
<defs>
<linearGradient id="paint0_linear_214_2372" x1="12.4132" y1="20.2382" x2="12.4132" y2="41.1349" gradientUnits="userSpaceOnUse">
<stop stop-color="#828282" stop-opacity="0.34"/>
<stop offset="1" stop-color="#C4C4C4"/>
</linearGradient>
<linearGradient id="paint1_linear_214_2372" x1="35.6501" y1="20.3199" x2="35.6501" y2="41.1348" gradientUnits="userSpaceOnUse">
<stop stop-color="#828282" stop-opacity="0.34"/>
<stop offset="1" stop-color="#C4C4C4"/>
</linearGradient>
<linearGradient id="paint2_linear_214_2372" x1="23.9965" y1="6.86511" x2="23.9965" y2="33.6968" gradientUnits="userSpaceOnUse">
<stop stop-color="#828282" stop-opacity="0.34"/>
<stop offset="1" stop-color="#C4C4C4"/>
</linearGradient>
<linearGradient id="paint3_linear_214_2372" x1="18.839" y1="20.2754" x2="18.839" y2="24.7405" gradientUnits="userSpaceOnUse">
<stop stop-color="#828282" stop-opacity="0.34"/>
<stop offset="1" stop-color="#C4C4C4"/>
</linearGradient>
<linearGradient id="paint4_linear_214_2372" x1="17.52" y1="15.7991" x2="17.52" y2="18.7721" gradientUnits="userSpaceOnUse">
<stop stop-color="#828282" stop-opacity="0.34"/>
<stop offset="1" stop-color="#C4C4C4"/>
</linearGradient>
<linearGradient id="paint5_linear_214_2372" x1="21.3954" y1="15.7991" x2="21.3954" y2="23.2633" gradientUnits="userSpaceOnUse">
<stop stop-color="#828282" stop-opacity="0.34"/>
<stop offset="1" stop-color="#C4C4C4"/>
</linearGradient>
<linearGradient id="paint6_linear_214_2372" x1="30.4297" y1="15.8214" x2="30.4297" y2="18.8056" gradientUnits="userSpaceOnUse">
<stop stop-color="#828282" stop-opacity="0.34"/>
<stop offset="1" stop-color="#C4C4C4"/>
</linearGradient>
<linearGradient id="paint7_linear_214_2372" x1="26.5602" y1="15.8214" x2="26.5602" y2="23.2595" gradientUnits="userSpaceOnUse">
<stop stop-color="#828282" stop-opacity="0.34"/>
<stop offset="1" stop-color="#C4C4C4"/>
</linearGradient>
<linearGradient id="paint8_linear_214_2372" x1="29.1684" y1="20.2865" x2="29.1684" y2="24.7591" gradientUnits="userSpaceOnUse">
<stop stop-color="#828282" stop-opacity="0.34"/>
<stop offset="1" stop-color="#C4C4C4"/>
</linearGradient>
</defs>
</svg>
