<svg width="424" height="182" viewBox="0 0 424 182" fill="none" xmlns="http://www.w3.org/2000/svg">
<path d="M138.575 106.457C138.277 49.0713 95.4548 2.81047 42.9749 3.08297C-9.50519 3.35563 -51.8447 50.059 -51.5467 107.445C-51.2485 164.83 -8.42594 211.091 44.0542 210.818C96.5342 210.546 138.873 163.842 138.575 106.457Z" stroke="url(#paint0_linear_137_1110)" stroke-width="0.5"/>
<ellipse cx="104.119" cy="95.3118" rx="104.119" ry="95.3118" transform="matrix(-0.0051955 -0.999986 -0.999986 0.0051955 171.139 210.405)" fill="url(#paint1_linear_137_1110)"/>
<ellipse cx="104.119" cy="95.3118" rx="104.119" ry="95.3118" transform="matrix(-0.0051955 -0.999986 -0.999986 0.0051955 171.139 210.405)" stroke="#B1ABFF" stroke-opacity="0.2" stroke-width="1.5"/>
<ellipse cx="104.119" cy="95.3118" rx="104.119" ry="95.3118" transform="matrix(-0.0051955 -0.999986 -0.999986 0.0051955 171.139 210.405)" stroke="url(#paint2_radial_137_1110)" stroke-width="1.5"/>
<ellipse cx="104.119" cy="95.3118" rx="104.119" ry="95.3118" transform="matrix(-0.0051955 -0.999986 -0.999986 0.0051955 202.907 210.24)" stroke="#B1ABFF" stroke-opacity="0.2" stroke-width="1.5"/>
<ellipse cx="104.119" cy="95.3118" rx="104.119" ry="95.3118" transform="matrix(-0.0051955 -0.999986 -0.999986 0.0051955 202.907 210.24)" stroke="url(#paint3_radial_137_1110)" stroke-width="1.5"/>
<ellipse cx="104.119" cy="95.3118" rx="104.119" ry="95.3118" transform="matrix(-0.0051955 -0.999986 -0.999986 0.0051955 234.671 210.075)" stroke="#B1ABFF" stroke-opacity="0.2" stroke-width="1.5"/>
<ellipse cx="104.119" cy="95.3118" rx="104.119" ry="95.3118" transform="matrix(-0.0051955 -0.999986 -0.999986 0.0051955 234.671 210.075)" stroke="url(#paint4_radial_137_1110)" stroke-width="1.5"/>
<ellipse cx="104.119" cy="95.3118" rx="104.119" ry="95.3118" transform="matrix(-0.0051955 -0.999986 -0.999986 0.0051955 266.45 209.912)" stroke="#B1ABFF" stroke-opacity="0.2" stroke-width="1.5"/>
<ellipse cx="104.119" cy="95.3118" rx="104.119" ry="95.3118" transform="matrix(-0.0051955 -0.999986 -0.999986 0.0051955 266.45 209.912)" stroke="url(#paint5_radial_137_1110)" stroke-width="1.5"/>
<ellipse cx="104.119" cy="95.3118" rx="104.119" ry="95.3118" transform="matrix(-0.0051955 -0.999986 -0.999986 0.0051955 298.218 209.745)" stroke="#B1ABFF" stroke-opacity="0.2" stroke-width="1.5"/>
<ellipse cx="104.119" cy="95.3118" rx="104.119" ry="95.3118" transform="matrix(-0.0051955 -0.999986 -0.999986 0.0051955 298.218 209.745)" stroke="url(#paint6_radial_137_1110)" stroke-width="1.5"/>
<ellipse cx="104.119" cy="95.3118" rx="104.119" ry="95.3118" transform="matrix(-0.0051955 -0.999986 -0.999986 0.0051955 329.985 209.579)" fill="url(#paint7_linear_137_1110)"/>
<ellipse cx="104.119" cy="95.3118" rx="104.119" ry="95.3118" transform="matrix(-0.0051955 -0.999986 -0.999986 0.0051955 329.985 209.579)" stroke="#B1ABFF" stroke-opacity="0.2" stroke-width="1.5"/>
<ellipse cx="104.119" cy="95.3118" rx="104.119" ry="95.3118" transform="matrix(-0.0051955 -0.999986 -0.999986 0.0051955 329.985 209.579)" stroke="url(#paint8_radial_137_1110)" stroke-width="1.5"/>
<ellipse cx="104.119" cy="95.3118" rx="104.119" ry="95.3118" transform="matrix(-0.0051955 -0.999986 -0.999986 0.0051955 361.761 209.417)" stroke="#B1ABFF" stroke-opacity="0.2" stroke-width="1.5"/>
<ellipse cx="104.119" cy="95.3118" rx="104.119" ry="95.3118" transform="matrix(-0.0051955 -0.999986 -0.999986 0.0051955 361.761 209.417)" stroke="url(#paint9_radial_137_1110)" stroke-width="1.5"/>
<ellipse cx="104.119" cy="95.3118" rx="104.119" ry="95.3118" transform="matrix(-0.0051955 -0.999986 -0.999986 0.0051955 393.53 209.25)" stroke="#B1ABFF" stroke-opacity="0.2" stroke-width="1.5"/>
<ellipse cx="104.119" cy="95.3118" rx="104.119" ry="95.3118" transform="matrix(-0.0051955 -0.999986 -0.999986 0.0051955 393.53 209.25)" stroke="url(#paint10_radial_137_1110)" stroke-width="1.5"/>
<ellipse cx="104.119" cy="95.3118" rx="104.119" ry="95.3118" transform="matrix(-0.0051955 -0.999986 -0.999986 0.0051955 425.295 209.086)" stroke="#B1ABFF" stroke-opacity="0.2" stroke-width="1.5"/>
<ellipse cx="104.119" cy="95.3118" rx="104.119" ry="95.3118" transform="matrix(-0.0051955 -0.999986 -0.999986 0.0051955 425.295 209.086)" stroke="url(#paint11_radial_137_1110)" stroke-width="1.5"/>
<ellipse cx="104.119" cy="95.3118" rx="104.119" ry="95.3118" transform="matrix(-0.0051955 -0.999986 -0.999986 0.0051955 457.071 208.92)" stroke="#B1ABFF" stroke-opacity="0.2" stroke-width="1.5"/>
<ellipse cx="104.119" cy="95.3118" rx="104.119" ry="95.3118" transform="matrix(-0.0051955 -0.999986 -0.999986 0.0051955 457.071 208.92)" stroke="url(#paint12_radial_137_1110)" stroke-width="1.5"/>
<ellipse cx="104.119" cy="95.3118" rx="104.119" ry="95.3118" transform="matrix(-0.0051955 -0.999986 -0.999986 0.0051955 488.837 208.755)" stroke="#B1ABFF" stroke-opacity="0.2" stroke-width="1.5"/>
<ellipse cx="104.119" cy="95.3118" rx="104.119" ry="95.3118" transform="matrix(-0.0051955 -0.999986 -0.999986 0.0051955 488.837 208.755)" stroke="url(#paint13_radial_137_1110)" stroke-width="1.5"/>
<path d="M519.819 104.476C519.521 47.0908 476.699 0.829996 424.219 1.1025C371.739 1.37516 329.399 48.0785 329.697 105.464C329.996 162.85 372.818 209.111 425.298 208.838C477.778 208.565 520.117 161.862 519.819 104.476Z" stroke="url(#paint14_linear_137_1110)" stroke-width="0.5"/>
<defs>
<linearGradient id="paint0_linear_137_1110" x1="-77.3985" y1="139.79" x2="-18.2921" y2="-32.0342" gradientUnits="userSpaceOnUse">
<stop stop-color="white"/>
<stop offset="1" stop-color="white" stop-opacity="0"/>
</linearGradient>
<linearGradient id="paint1_linear_137_1110" x1="104.119" y1="0" x2="104.119" y2="190.624" gradientUnits="userSpaceOnUse">
<stop stop-color="#17161D" stop-opacity="0.02"/>
<stop offset="1" stop-color="#1E1D22"/>
</linearGradient>
<radialGradient id="paint2_radial_137_1110" cx="0" cy="0" r="1" gradientUnits="userSpaceOnUse" gradientTransform="translate(147.43 184.981) rotate(5.75004) scale(56.3196 51.6556)">
<stop stop-color="#D8D5FF"/>
<stop offset="1" stop-color="#C4C0FF" stop-opacity="0"/>
</radialGradient>
<radialGradient id="paint3_radial_137_1110" cx="0" cy="0" r="1" gradientUnits="userSpaceOnUse" gradientTransform="translate(147.43 184.981) rotate(5.75004) scale(56.3196 51.6556)">
<stop stop-color="#D8D5FF"/>
<stop offset="1" stop-color="#C4C0FF" stop-opacity="0"/>
</radialGradient>
<radialGradient id="paint4_radial_137_1110" cx="0" cy="0" r="1" gradientUnits="userSpaceOnUse" gradientTransform="translate(147.43 184.981) rotate(5.75004) scale(56.3196 51.6556)">
<stop stop-color="#D8D5FF"/>
<stop offset="1" stop-color="#C4C0FF" stop-opacity="0"/>
</radialGradient>
<radialGradient id="paint5_radial_137_1110" cx="0" cy="0" r="1" gradientUnits="userSpaceOnUse" gradientTransform="translate(147.43 184.981) rotate(5.75004) scale(56.3196 51.6556)">
<stop stop-color="#D8D5FF"/>
<stop offset="1" stop-color="#C4C0FF" stop-opacity="0"/>
</radialGradient>
<radialGradient id="paint6_radial_137_1110" cx="0" cy="0" r="1" gradientUnits="userSpaceOnUse" gradientTransform="translate(147.43 184.981) rotate(5.75004) scale(56.3196 51.6556)">
<stop stop-color="#D8D5FF"/>
<stop offset="1" stop-color="#C4C0FF" stop-opacity="0"/>
</radialGradient>
<linearGradient id="paint7_linear_137_1110" x1="104.119" y1="0" x2="104.119" y2="190.624" gradientUnits="userSpaceOnUse">
<stop stop-color="#0E0F1B"/>
<stop offset="1" stop-color="#302929" stop-opacity="0"/>
</linearGradient>
<radialGradient id="paint8_radial_137_1110" cx="0" cy="0" r="1" gradientUnits="userSpaceOnUse" gradientTransform="translate(147.43 184.981) rotate(5.75004) scale(56.3196 51.6556)">
<stop stop-color="#D8D5FF"/>
<stop offset="1" stop-color="#C4C0FF" stop-opacity="0"/>
</radialGradient>
<radialGradient id="paint9_radial_137_1110" cx="0" cy="0" r="1" gradientUnits="userSpaceOnUse" gradientTransform="translate(147.43 184.981) rotate(5.75004) scale(56.3196 51.6556)">
<stop stop-color="#D8D5FF"/>
<stop offset="1" stop-color="#C4C0FF" stop-opacity="0"/>
</radialGradient>
<radialGradient id="paint10_radial_137_1110" cx="0" cy="0" r="1" gradientUnits="userSpaceOnUse" gradientTransform="translate(147.43 184.981) rotate(5.75004) scale(56.3196 51.6556)">
<stop stop-color="#D8D5FF"/>
<stop offset="1" stop-color="#C4C0FF" stop-opacity="0"/>
</radialGradient>
<radialGradient id="paint11_radial_137_1110" cx="0" cy="0" r="1" gradientUnits="userSpaceOnUse" gradientTransform="translate(147.43 184.981) rotate(5.75004) scale(56.3196 51.6556)">
<stop stop-color="#D8D5FF"/>
<stop offset="1" stop-color="#C4C0FF" stop-opacity="0"/>
</radialGradient>
<radialGradient id="paint12_radial_137_1110" cx="0" cy="0" r="1" gradientUnits="userSpaceOnUse" gradientTransform="translate(147.43 184.981) rotate(5.75004) scale(56.3196 51.6556)">
<stop stop-color="#D8D5FF"/>
<stop offset="1" stop-color="#C4C0FF" stop-opacity="0"/>
</radialGradient>
<radialGradient id="paint13_radial_137_1110" cx="0" cy="0" r="1" gradientUnits="userSpaceOnUse" gradientTransform="translate(147.43 184.981) rotate(5.75004) scale(56.3196 51.6556)">
<stop stop-color="#D8D5FF"/>
<stop offset="1" stop-color="#C4C0FF" stop-opacity="0"/>
</radialGradient>
<linearGradient id="paint14_linear_137_1110" x1="284.602" y1="90.3592" x2="594.279" y2="158.298" gradientUnits="userSpaceOnUse">
<stop stop-color="white"/>
<stop offset="1" stop-color="white" stop-opacity="0"/>
</linearGradient>
</defs>
</svg>
