<svg width="210" height="195" viewBox="0 0 210 195" fill="none" xmlns="http://www.w3.org/2000/svg">
<path fill-rule="evenodd" clip-rule="evenodd" d="M185.741 133.487C185.434 133.677 185.124 133.862 184.81 134.043C184.483 134.232 184.153 134.416 183.821 134.594C183.515 134.784 183.206 134.97 182.892 135.15C182.564 135.34 182.234 135.523 181.901 135.7C181.596 135.891 181.287 136.077 180.974 136.258C180.646 136.448 180.315 136.631 179.981 136.807C179.677 136.999 179.369 137.185 179.056 137.365C178.727 137.555 178.395 137.738 178.06 137.913C177.758 138.106 177.45 138.293 177.138 138.473C176.808 138.663 176.476 138.845 176.14 139.019C175.838 139.213 175.532 139.4 175.219 139.58C174.89 139.771 174.556 139.952 174.218 140.125C173.919 140.32 173.613 140.508 173.301 140.688C172.971 140.879 172.636 141.059 172.297 141.23C171.999 141.427 171.694 141.616 171.383 141.795C154.433 151.582 124.372 131.248 104.24 96.3789C84.1086 61.5099 81.5295 25.3097 98.4798 15.5235C98.7909 15.3438 99.1064 15.1744 99.4262 15.0149C99.7435 14.8065 100.067 14.6068 100.398 14.416C100.71 14.2361 101.025 14.0652 101.344 13.9033C101.662 13.6973 101.986 13.499 102.316 13.3085C102.628 13.1284 102.944 12.9563 103.262 12.7924C103.581 12.5884 103.905 12.3912 104.234 12.201C104.547 12.0207 104.862 11.8476 105.181 11.6819C105.5 11.4796 105.824 11.2835 106.153 11.0936C106.465 10.913 106.781 10.7391 107.099 10.5718C107.418 10.371 107.742 10.1757 108.071 9.98611C108.384 9.80533 108.699 9.63064 109.017 9.46199C109.337 9.2625 109.661 9.06802 109.989 8.87864C110.302 8.6977 110.618 8.52233 110.936 8.35249C111.256 8.15414 111.58 7.96034 111.907 7.77117C112.221 7.59007 112.536 7.4141 112.854 7.24323C113.174 7.04587 113.498 6.85268 113.825 6.6637C139.251 -8.01561 176.182 8.35137 196.314 43.2204C216.445 78.0894 212.154 118.256 186.729 132.936C186.401 133.125 186.072 133.308 185.741 133.487ZM181.803 110.817C180.768 96.2951 175.127 78.6162 165.096 61.2436C155.066 43.8711 142.577 30.146 130.518 21.9892C121.507 15.8941 112.84 12.9694 105.632 13.8212C98.264 21.4145 93.8373 31.994 92.553 44.0147C90.8335 60.1089 94.758 78.74 104.766 96.0751C114.775 113.41 128.948 126.124 143.745 132.682C154.798 137.581 166.173 139.037 176.433 136.453C180.775 130.636 182.576 121.668 181.803 110.817ZM177.997 136.025C177.785 136.087 177.573 136.148 177.36 136.207C187.267 121.898 182.936 90.9267 165.623 60.9399C148.31 30.9531 123.653 11.7163 106.308 13.1415C106.465 12.9867 106.624 12.8333 106.784 12.6812C114.61 11.1442 124.065 13.8577 133.805 20.1067C146.205 28.0627 158.905 41.6606 168.933 59.0287C178.96 76.3968 184.386 94.1945 185.076 108.912C185.618 120.471 183.241 130.016 177.997 136.025ZM179.452 135.564C179.325 135.607 179.197 135.649 179.069 135.691C190.606 121.263 187.107 89.2919 169.459 58.7249C151.811 28.1579 125.873 9.14194 107.609 11.9196C107.709 11.8296 107.81 11.7401 107.911 11.6511C116.367 9.3874 126.625 11.8535 137.091 18.2238C149.833 25.9792 162.744 39.4502 172.769 56.8138C182.794 74.1774 188.005 92.0939 188.35 107.007C188.634 119.256 185.641 129.373 179.452 135.564ZM180.811 135.076C180.781 135.087 180.752 135.098 180.723 135.109C193.875 120.529 191.243 87.5962 173.295 56.51C155.348 25.4238 128.143 6.67844 108.94 10.7781C108.964 10.7582 108.989 10.7384 109.013 10.7186C118.111 7.6925 129.187 9.87835 140.378 16.3404C153.462 23.8956 166.583 37.2398 176.606 54.5988C186.628 71.9579 191.624 89.9933 191.625 105.102C191.626 118.024 187.981 128.71 180.811 135.076ZM148.701 135.283C156.345 137.907 164.054 138.883 171.363 138.005C164.144 139.024 156.422 138.043 148.701 135.283ZM121.174 4.01113C132.176 0.312978 144.686 1.54464 156.809 6.91685C171.606 13.4748 185.779 26.1891 195.788 43.5241C205.796 60.8592 209.721 79.4903 208.001 95.5846C206.592 108.769 201.404 120.219 192.7 127.897C209.662 110.487 210.184 76.1038 192.477 45.4353C174.771 14.7669 144.733 -1.97238 121.174 4.01113ZM92.7789 38.4228C94.2486 30.3568 97.2607 23.1784 101.752 17.4355C97.3371 23.3265 94.328 30.4909 92.7789 38.4228ZM188.641 47.6503C206.414 78.4343 206.49 112.575 190.227 129.411C198.674 121.981 203.586 110.651 204.725 97.4873C206.101 81.5909 201.963 63.0791 191.951 45.7391C181.94 28.3991 167.977 15.5594 153.523 8.80235C141.553 3.20672 129.285 1.79569 118.627 5.39679C141.339 -0.269868 170.868 16.8662 188.641 47.6503ZM147.26 135.398C155.298 138.467 163.392 139.647 170.973 138.671C163.506 139.819 155.394 138.634 147.26 135.398ZM100.98 17.4407C96.2529 23.3335 93.2233 30.9508 91.9591 39.6129C93.3199 31.1177 96.345 23.5178 100.98 17.4407ZM145.941 135.514C154.291 139.022 162.681 140.416 170.436 139.364C162.821 140.623 154.41 139.224 145.941 135.514ZM116.101 6.77273C126.403 3.26962 138.422 4.86304 150.237 10.6875C164.348 17.6437 178.101 30.6092 188.115 47.954C198.129 65.2989 202.481 83.6915 201.45 99.3904C200.586 112.535 195.957 123.74 187.772 130.91C203.329 114.656 202.644 80.7645 184.805 49.8652C166.965 18.9659 137.956 1.42755 116.101 6.77273ZM91.1984 40.6976C92.22 31.5078 95.2145 23.5241 100.112 17.5594C95.3231 23.7485 92.3353 31.7116 91.1984 40.6976ZM180.968 52.0801C198.874 83.0942 200.176 116.73 185.337 132.396C193.253 125.494 197.593 114.42 198.174 101.294C198.862 85.7921 194.295 67.5186 184.278 50.169C174.262 32.8193 160.719 19.7278 146.951 12.5722C135.292 6.51324 123.532 4.7345 113.596 8.13879C134.583 3.12016 163.062 21.0661 180.968 52.0801ZM144.722 135.633C153.318 139.575 161.928 141.192 169.773 140.081C162.097 141.435 153.462 139.815 144.722 135.633ZM99.16 17.7748C94.1487 23.745 91.2347 32.0332 90.4857 41.6939C91.3704 32.2784 94.2748 24.0137 99.16 17.7748ZM143.587 135.756C152.372 140.124 161.135 141.972 169 140.821C161.338 142.257 152.546 140.407 143.587 135.756ZM111.114 9.4949C120.671 6.18996 132.165 8.1568 143.665 14.4565C157.091 21.8118 170.422 35.0295 180.442 52.3839C190.462 69.7383 195.243 87.8927 194.899 103.198C194.606 116.306 190.562 127.244 182.921 133.868C197.034 118.797 195.104 85.423 177.132 54.2951C159.16 23.167 131.222 4.80825 111.114 9.4949ZM89.8124 42.615C90.2638 32.5308 93.0579 23.9916 98.1319 18.0737C93.2025 24.3096 90.4219 32.8228 89.8124 42.615ZM142.526 135.882C151.45 140.67 160.307 142.758 168.129 141.585C160.548 143.087 151.657 141.001 142.526 135.882ZM97.0345 18.4466C91.9437 24.2608 89.3044 33.0034 89.1721 43.4711C89.4874 33.3484 92.1082 24.6338 97.0345 18.4466ZM141.528 136.013C150.547 141.214 159.446 143.548 167.168 142.372C159.73 143.926 150.793 141.6 141.528 136.013ZM88.5594 44.2697C88.354 33.4528 90.8074 24.5499 95.8731 18.8859C90.9934 24.9844 88.565 33.8582 88.5594 44.2697ZM140.586 136.15C149.661 141.756 158.554 144.342 166.125 143.179C158.885 144.776 149.951 142.203 140.586 136.15ZM94.6522 19.3856C89.6499 24.8567 87.4103 33.8803 87.97 45.0172C87.6531 34.3549 89.8594 25.3605 94.6522 19.3856Z" stroke="#B1ABFF" stroke-opacity="0.2" stroke-width="1.5"/>
<path fill-rule="evenodd" clip-rule="evenodd" d="M185.741 133.487C185.434 133.677 185.124 133.862 184.81 134.043C184.483 134.232 184.153 134.416 183.821 134.594C183.515 134.784 183.206 134.97 182.892 135.15C182.564 135.34 182.234 135.523 181.901 135.7C181.596 135.891 181.287 136.077 180.974 136.258C180.646 136.448 180.315 136.631 179.981 136.807C179.677 136.999 179.369 137.185 179.056 137.365C178.727 137.555 178.395 137.738 178.06 137.913C177.758 138.106 177.45 138.293 177.138 138.473C176.808 138.663 176.476 138.845 176.14 139.019C175.838 139.213 175.532 139.4 175.219 139.58C174.89 139.771 174.556 139.952 174.218 140.125C173.919 140.32 173.613 140.508 173.301 140.688C172.971 140.879 172.636 141.059 172.297 141.23C171.999 141.427 171.694 141.616 171.383 141.795C154.433 151.582 124.372 131.248 104.24 96.3789C84.1086 61.5099 81.5295 25.3097 98.4798 15.5235C98.7909 15.3438 99.1064 15.1744 99.4262 15.0149C99.7435 14.8065 100.067 14.6068 100.398 14.416C100.71 14.2361 101.025 14.0652 101.344 13.9033C101.662 13.6973 101.986 13.499 102.316 13.3085C102.628 13.1284 102.944 12.9563 103.262 12.7924C103.581 12.5884 103.905 12.3912 104.234 12.201C104.547 12.0207 104.862 11.8476 105.181 11.6819C105.5 11.4796 105.824 11.2835 106.153 11.0936C106.465 10.913 106.781 10.7391 107.099 10.5718C107.418 10.371 107.742 10.1757 108.071 9.98611C108.384 9.80533 108.699 9.63064 109.017 9.46199C109.337 9.2625 109.661 9.06802 109.989 8.87864C110.302 8.6977 110.618 8.52233 110.936 8.35249C111.256 8.15414 111.58 7.96034 111.907 7.77117C112.221 7.59007 112.536 7.4141 112.854 7.24323C113.174 7.04587 113.498 6.85268 113.825 6.6637C139.251 -8.01561 176.182 8.35137 196.314 43.2204C216.445 78.0894 212.154 118.256 186.729 132.936C186.401 133.125 186.072 133.308 185.741 133.487ZM181.803 110.817C180.768 96.2951 175.127 78.6162 165.096 61.2436C155.066 43.8711 142.577 30.146 130.518 21.9892C121.507 15.8941 112.84 12.9694 105.632 13.8212C98.264 21.4145 93.8373 31.994 92.553 44.0147C90.8335 60.1089 94.758 78.74 104.766 96.0751C114.775 113.41 128.948 126.124 143.745 132.682C154.798 137.581 166.173 139.037 176.433 136.453C180.775 130.636 182.576 121.668 181.803 110.817ZM177.997 136.025C177.785 136.087 177.573 136.148 177.36 136.207C187.267 121.898 182.936 90.9267 165.623 60.9399C148.31 30.9531 123.653 11.7163 106.308 13.1415C106.465 12.9867 106.624 12.8333 106.784 12.6812C114.61 11.1442 124.065 13.8577 133.805 20.1067C146.205 28.0627 158.905 41.6606 168.933 59.0287C178.96 76.3968 184.386 94.1945 185.076 108.912C185.618 120.471 183.241 130.016 177.997 136.025ZM179.452 135.564C179.325 135.607 179.197 135.649 179.069 135.691C190.606 121.263 187.107 89.2919 169.459 58.7249C151.811 28.1579 125.873 9.14194 107.609 11.9196C107.709 11.8296 107.81 11.7401 107.911 11.6511C116.367 9.3874 126.625 11.8535 137.091 18.2238C149.833 25.9792 162.744 39.4502 172.769 56.8138C182.794 74.1774 188.005 92.0939 188.35 107.007C188.634 119.256 185.641 129.373 179.452 135.564ZM180.811 135.076C180.781 135.087 180.752 135.098 180.723 135.109C193.875 120.529 191.243 87.5962 173.295 56.51C155.348 25.4238 128.143 6.67844 108.94 10.7781C108.964 10.7582 108.989 10.7384 109.013 10.7186C118.111 7.6925 129.187 9.87835 140.378 16.3404C153.462 23.8956 166.583 37.2398 176.606 54.5988C186.628 71.9579 191.624 89.9933 191.625 105.102C191.626 118.024 187.981 128.71 180.811 135.076ZM148.701 135.283C156.345 137.907 164.054 138.883 171.363 138.005C164.144 139.024 156.422 138.043 148.701 135.283ZM121.174 4.01113C132.176 0.312978 144.686 1.54464 156.809 6.91685C171.606 13.4748 185.779 26.1891 195.788 43.5241C205.796 60.8592 209.721 79.4903 208.001 95.5846C206.592 108.769 201.404 120.219 192.7 127.897C209.662 110.487 210.184 76.1038 192.477 45.4353C174.771 14.7669 144.733 -1.97238 121.174 4.01113ZM92.7789 38.4228C94.2486 30.3568 97.2607 23.1784 101.752 17.4355C97.3371 23.3265 94.328 30.4909 92.7789 38.4228ZM188.641 47.6503C206.414 78.4343 206.49 112.575 190.227 129.411C198.674 121.981 203.586 110.651 204.725 97.4873C206.101 81.5909 201.963 63.0791 191.951 45.7391C181.94 28.3991 167.977 15.5594 153.523 8.80235C141.553 3.20672 129.285 1.79569 118.627 5.39679C141.339 -0.269868 170.868 16.8662 188.641 47.6503ZM147.26 135.398C155.298 138.467 163.392 139.647 170.973 138.671C163.506 139.819 155.394 138.634 147.26 135.398ZM100.98 17.4407C96.2529 23.3335 93.2233 30.9508 91.9591 39.6129C93.3199 31.1177 96.345 23.5178 100.98 17.4407ZM145.941 135.514C154.291 139.022 162.681 140.416 170.436 139.364C162.821 140.623 154.41 139.224 145.941 135.514ZM116.101 6.77273C126.403 3.26962 138.422 4.86304 150.237 10.6875C164.348 17.6437 178.101 30.6092 188.115 47.954C198.129 65.2989 202.481 83.6915 201.45 99.3904C200.586 112.535 195.957 123.74 187.772 130.91C203.329 114.656 202.644 80.7645 184.805 49.8652C166.965 18.9659 137.956 1.42755 116.101 6.77273ZM91.1984 40.6976C92.22 31.5078 95.2145 23.5241 100.112 17.5594C95.3231 23.7485 92.3353 31.7116 91.1984 40.6976ZM180.968 52.0801C198.874 83.0942 200.176 116.73 185.337 132.396C193.253 125.494 197.593 114.42 198.174 101.294C198.862 85.7921 194.295 67.5186 184.278 50.169C174.262 32.8193 160.719 19.7278 146.951 12.5722C135.292 6.51324 123.532 4.7345 113.596 8.13879C134.583 3.12016 163.062 21.0661 180.968 52.0801ZM144.722 135.633C153.318 139.575 161.928 141.192 169.773 140.081C162.097 141.435 153.462 139.815 144.722 135.633ZM99.16 17.7748C94.1487 23.745 91.2347 32.0332 90.4857 41.6939C91.3704 32.2784 94.2748 24.0137 99.16 17.7748ZM143.587 135.756C152.372 140.124 161.135 141.972 169 140.821C161.338 142.257 152.546 140.407 143.587 135.756ZM111.114 9.4949C120.671 6.18996 132.165 8.1568 143.665 14.4565C157.091 21.8118 170.422 35.0295 180.442 52.3839C190.462 69.7383 195.243 87.8927 194.899 103.198C194.606 116.306 190.562 127.244 182.921 133.868C197.034 118.797 195.104 85.423 177.132 54.2951C159.16 23.167 131.222 4.80825 111.114 9.4949ZM89.8124 42.615C90.2638 32.5308 93.0579 23.9916 98.1319 18.0737C93.2025 24.3096 90.4219 32.8228 89.8124 42.615ZM142.526 135.882C151.45 140.67 160.307 142.758 168.129 141.585C160.548 143.087 151.657 141.001 142.526 135.882ZM97.0345 18.4466C91.9437 24.2608 89.3044 33.0034 89.1721 43.4711C89.4874 33.3484 92.1082 24.6338 97.0345 18.4466ZM141.528 136.013C150.547 141.214 159.446 143.548 167.168 142.372C159.73 143.926 150.793 141.6 141.528 136.013ZM88.5594 44.2697C88.354 33.4528 90.8074 24.5499 95.8731 18.8859C90.9934 24.9844 88.565 33.8582 88.5594 44.2697ZM140.586 136.15C149.661 141.756 158.554 144.342 166.125 143.179C158.885 144.776 149.951 142.203 140.586 136.15ZM94.6522 19.3856C89.6499 24.8567 87.4103 33.8803 87.97 45.0172C87.6531 34.3549 89.8594 25.3605 94.6522 19.3856Z" stroke="url(#paint0_radial_137_1135)" stroke-width="1.5"/>
<path fill-rule="evenodd" clip-rule="evenodd" d="M97.146 188.145C97.4635 187.974 97.7791 187.798 98.0928 187.617C98.4204 187.428 98.7443 187.234 99.0644 187.036C99.382 186.866 99.6976 186.69 100.011 186.51C100.339 186.32 100.663 186.126 100.983 185.926C101.301 185.758 101.616 185.583 101.929 185.402C102.258 185.212 102.582 185.017 102.901 184.816C103.219 184.649 103.535 184.475 103.847 184.295C104.176 184.105 104.5 183.909 104.819 183.706C105.138 183.541 105.453 183.368 105.766 183.187C106.095 182.997 106.419 182.8 106.738 182.596C107.056 182.432 107.372 182.26 107.684 182.08C108.014 181.889 108.338 181.691 108.656 181.485C108.975 181.323 109.29 181.152 109.602 180.972C109.933 180.781 110.256 180.582 110.574 180.373C110.894 180.214 111.209 180.044 111.52 179.865C128.47 170.079 125.891 133.878 105.76 99.0093C85.628 64.1403 55.5671 43.8067 38.6169 53.5929C38.3057 53.7725 38.0012 53.961 37.7032 54.1583C37.3641 54.3288 37.0292 54.5095 36.6987 54.7003C36.3871 54.8802 36.0814 55.068 35.7816 55.2635C35.4441 55.4359 35.1104 55.6173 34.7805 55.8078C34.4684 55.988 34.1617 56.1751 33.8603 56.3692C33.5244 56.5431 33.1916 56.7251 32.8623 56.9153C32.5498 57.0957 32.2422 57.2823 31.9395 57.4752C31.6048 57.6503 31.2729 57.8329 30.9441 58.0227C30.6313 58.2033 30.3229 58.3896 30.019 58.5814C29.6854 58.7577 29.3543 58.9406 29.0259 59.1302C28.7128 59.311 28.4037 59.4969 28.0987 59.6878C27.7661 59.865 27.4357 60.0483 27.1077 60.2377C26.7943 60.4186 26.4846 60.6042 26.1787 60.7944C25.8469 60.9724 25.5171 61.156 25.1895 61.3451C24.8758 61.5262 24.5656 61.7116 24.2589 61.9011C23.9278 62.0798 23.5986 62.2636 23.2713 62.4526C-2.15412 77.1319 -6.44552 117.299 13.6862 152.168C33.8179 187.037 70.7492 203.404 96.1746 188.724C96.5019 188.535 96.8257 188.342 97.146 188.145ZM79.4822 173.399C67.4233 165.242 54.9336 151.517 44.9035 134.145C34.8734 116.772 29.2319 99.0931 28.1974 84.5714C27.4243 73.7202 29.2248 64.7524 33.5666 58.9357C43.8265 56.3515 55.202 57.8076 66.2545 62.7058C81.0523 69.2637 95.2251 81.978 105.234 99.3131C115.242 116.648 119.166 135.279 117.447 151.373C116.163 163.394 111.736 173.974 104.368 181.567C97.1597 182.419 88.4931 179.494 79.4822 173.399ZM103.216 182.707C103.376 182.555 103.535 182.401 103.692 182.247C86.3466 183.672 61.6903 164.435 44.3773 134.448C27.0644 104.461 22.7329 73.4902 32.6401 59.1809C32.4273 59.2399 32.215 59.3008 32.0032 59.3634C26.7594 65.372 24.3818 74.9172 24.9237 86.4766C25.6136 101.194 31.0396 118.991 41.0671 136.359C51.0946 153.728 63.7949 167.325 76.1953 175.281C85.9352 181.53 95.3904 184.244 103.216 182.707ZM102.089 183.737C102.19 183.648 102.291 183.559 102.391 183.469C84.127 186.246 58.1889 167.23 40.5409 136.663C22.893 106.096 19.3937 74.1252 30.9313 59.6969C30.8032 59.7388 30.6752 59.7814 30.5475 59.8246C24.3594 66.0153 21.3659 76.1324 21.6496 88.3816C21.995 103.294 27.2058 121.211 37.2307 138.574C47.2556 155.938 60.1664 169.409 72.9085 177.164C83.3748 183.535 93.6333 186.001 102.089 183.737ZM100.987 184.67C101.011 184.65 101.036 184.63 101.06 184.61C81.8567 188.71 54.6522 169.964 36.7045 138.878C18.7569 107.792 16.1251 74.8595 29.2771 60.279C29.2478 60.29 29.2185 60.3011 29.1892 60.3123C22.0195 66.6784 18.3743 77.3637 18.3752 90.2862C18.3762 105.395 23.372 123.43 33.3943 140.789C43.4166 158.148 56.5379 171.493 69.6219 179.048C80.8127 185.51 91.889 187.696 100.987 184.67ZM117.221 156.965C115.672 164.897 112.663 172.062 108.248 177.953C112.739 172.21 115.751 165.031 117.221 156.965ZM17.2996 67.4907C8.59622 75.169 3.40749 86.6195 1.99891 99.8036C0.27941 115.898 4.20387 134.529 14.2123 151.864C24.2208 169.199 38.3936 181.913 53.1914 188.471C65.3135 193.844 77.8243 195.075 88.8256 191.377C65.267 197.361 35.2291 180.621 17.5226 149.953C-0.183916 119.284 0.338414 84.9012 17.2996 67.4907ZM61.2988 60.1055C53.5785 57.3453 45.8558 56.3646 38.6366 57.3828C45.9458 56.5048 53.6549 57.4811 61.2988 60.1055ZM21.359 147.738C39.1322 178.522 68.6606 195.658 91.3728 189.991C80.7153 193.592 68.4471 192.181 56.4771 186.586C42.0227 179.829 28.06 166.989 18.0487 149.649C8.03744 132.309 3.8992 113.797 5.27465 97.9009C6.4137 84.7367 11.3258 73.4067 19.7732 65.9776C3.50963 82.8135 3.58574 116.954 21.359 147.738ZM118.041 155.775C116.68 164.27 113.655 171.87 109.02 177.947C113.747 172.055 116.777 164.437 118.041 155.775ZM39.0272 56.7167C46.494 55.5694 54.6056 56.7543 62.7393 59.9905C54.7019 56.9215 46.6076 55.7413 39.0272 56.7167ZM118.802 154.691C117.665 163.676 114.677 171.639 109.888 177.828C114.786 171.864 117.78 163.88 118.802 154.691ZM22.2279 64.4778C14.0429 71.6485 9.41376 82.8531 8.55017 95.9978C7.51876 111.697 11.871 130.089 21.8851 147.434C31.8992 164.779 45.6516 177.744 59.763 184.701C71.5784 190.525 83.5965 192.119 93.8989 188.615C72.0439 193.961 43.0351 176.422 25.1954 145.523C7.35558 114.624 6.67131 80.7322 22.2279 64.4778ZM64.059 59.8741C55.5897 56.1639 47.1783 54.7654 39.5638 56.0247C47.3183 54.9716 55.7085 56.3657 64.059 59.8741ZM29.0318 143.308C46.9378 174.322 75.4165 192.268 96.4035 187.249C86.4678 190.654 74.7075 188.875 63.0491 182.816C49.2805 175.66 35.7383 162.569 25.7215 145.219C15.7046 127.87 11.1381 109.596 11.8255 94.0943C12.4074 80.9684 16.7471 69.8943 24.6632 62.9919C9.82345 78.6578 11.1257 112.294 29.0318 143.308ZM119.514 153.694C118.63 163.11 115.725 171.374 110.84 177.613C115.851 171.643 118.765 163.355 119.514 153.694ZM40.2264 55.3076C47.9024 53.9528 56.5374 55.5733 65.2782 59.755C56.6818 55.8134 48.0721 54.1963 40.2264 55.3076ZM120.187 152.773C119.578 162.565 116.797 171.078 111.868 177.314C116.942 171.396 119.736 162.857 120.187 152.773ZM27.0789 61.5201C19.4384 68.1439 15.3944 79.0819 15.1005 92.1904C14.7573 107.495 19.5383 125.65 29.5579 143.004C39.5775 160.359 52.9092 173.576 66.3354 180.932C77.8347 187.231 89.3292 189.198 98.8859 185.893C78.7779 190.58 50.84 172.221 32.8682 141.093C14.8963 109.965 12.9661 76.5908 27.0789 61.5201ZM66.4126 59.6325C57.4537 54.9813 48.6614 53.1314 40.9994 54.5667C48.8645 53.4157 57.6275 55.2642 66.4126 59.6325ZM120.828 151.917C120.513 162.04 117.892 170.754 112.966 176.941C118.056 171.127 120.696 162.385 120.828 151.917ZM41.871 53.8028C49.4517 52.3011 58.3427 54.3868 67.4741 59.506C58.55 54.7178 49.6924 52.6301 41.871 53.8028ZM121.441 151.118C121.435 161.53 119.007 170.404 114.127 176.502C119.193 170.838 121.646 161.935 121.441 151.118ZM68.4721 59.3747C59.2071 53.7884 50.2702 51.4616 42.8322 53.0167C50.5535 51.84 59.4527 54.1739 68.4721 59.3747ZM122.03 150.371C122.347 161.033 120.141 170.028 115.348 176.003C120.35 170.531 122.59 161.508 122.03 150.371ZM43.8754 52.2092C51.1146 50.6126 60.0492 53.1849 69.4141 59.238C60.3387 53.6324 51.4462 51.0459 43.8754 52.2092Z" stroke="#B1ABFF" stroke-opacity="0.2" stroke-width="1.5"/>
<path fill-rule="evenodd" clip-rule="evenodd" d="M97.146 188.145C97.4635 187.974 97.7791 187.798 98.0928 187.617C98.4204 187.428 98.7443 187.234 99.0644 187.036C99.382 186.866 99.6976 186.69 100.011 186.51C100.339 186.32 100.663 186.126 100.983 185.926C101.301 185.758 101.616 185.583 101.929 185.402C102.258 185.212 102.582 185.017 102.901 184.816C103.219 184.649 103.535 184.475 103.847 184.295C104.176 184.105 104.5 183.909 104.819 183.706C105.138 183.541 105.453 183.368 105.766 183.187C106.095 182.997 106.419 182.8 106.738 182.596C107.056 182.432 107.372 182.26 107.684 182.08C108.014 181.889 108.338 181.691 108.656 181.485C108.975 181.323 109.29 181.152 109.602 180.972C109.933 180.781 110.256 180.582 110.574 180.373C110.894 180.214 111.209 180.044 111.52 179.865C128.47 170.079 125.891 133.878 105.76 99.0093C85.628 64.1403 55.5671 43.8067 38.6169 53.5929C38.3057 53.7725 38.0012 53.961 37.7032 54.1583C37.3641 54.3288 37.0292 54.5095 36.6987 54.7003C36.3871 54.8802 36.0814 55.068 35.7816 55.2635C35.4441 55.4359 35.1104 55.6173 34.7805 55.8078C34.4684 55.988 34.1617 56.1751 33.8603 56.3692C33.5244 56.5431 33.1916 56.7251 32.8623 56.9153C32.5498 57.0957 32.2422 57.2823 31.9395 57.4752C31.6048 57.6503 31.2729 57.8329 30.9441 58.0227C30.6313 58.2033 30.3229 58.3896 30.019 58.5814C29.6854 58.7577 29.3543 58.9406 29.0259 59.1302C28.7128 59.311 28.4037 59.4969 28.0987 59.6878C27.7661 59.865 27.4357 60.0483 27.1077 60.2377C26.7943 60.4186 26.4846 60.6042 26.1787 60.7944C25.8469 60.9724 25.5171 61.156 25.1895 61.3451C24.8758 61.5262 24.5656 61.7116 24.2589 61.9011C23.9278 62.0798 23.5986 62.2636 23.2713 62.4526C-2.15412 77.1319 -6.44552 117.299 13.6862 152.168C33.8179 187.037 70.7492 203.404 96.1746 188.724C96.5019 188.535 96.8257 188.342 97.146 188.145ZM79.4822 173.399C67.4233 165.242 54.9336 151.517 44.9035 134.145C34.8734 116.772 29.2319 99.0931 28.1974 84.5714C27.4243 73.7202 29.2248 64.7524 33.5666 58.9357C43.8265 56.3515 55.202 57.8076 66.2545 62.7058C81.0523 69.2637 95.2251 81.978 105.234 99.3131C115.242 116.648 119.166 135.279 117.447 151.373C116.163 163.394 111.736 173.974 104.368 181.567C97.1597 182.419 88.4931 179.494 79.4822 173.399ZM103.216 182.707C103.376 182.555 103.535 182.401 103.692 182.247C86.3466 183.672 61.6903 164.435 44.3773 134.448C27.0644 104.461 22.7329 73.4902 32.6401 59.1809C32.4273 59.2399 32.215 59.3008 32.0032 59.3634C26.7594 65.372 24.3818 74.9172 24.9237 86.4766C25.6136 101.194 31.0396 118.991 41.0671 136.359C51.0946 153.728 63.7949 167.325 76.1953 175.281C85.9352 181.53 95.3904 184.244 103.216 182.707ZM102.089 183.737C102.19 183.648 102.291 183.559 102.391 183.469C84.127 186.246 58.1889 167.23 40.5409 136.663C22.893 106.096 19.3937 74.1252 30.9313 59.6969C30.8032 59.7388 30.6752 59.7814 30.5475 59.8246C24.3594 66.0153 21.3659 76.1324 21.6496 88.3816C21.995 103.294 27.2058 121.211 37.2307 138.574C47.2556 155.938 60.1664 169.409 72.9085 177.164C83.3748 183.535 93.6333 186.001 102.089 183.737ZM100.987 184.67C101.011 184.65 101.036 184.63 101.06 184.61C81.8567 188.71 54.6522 169.964 36.7045 138.878C18.7569 107.792 16.1251 74.8595 29.2771 60.279C29.2478 60.29 29.2185 60.3011 29.1892 60.3123C22.0195 66.6784 18.3743 77.3637 18.3752 90.2862C18.3762 105.395 23.372 123.43 33.3943 140.789C43.4166 158.148 56.5379 171.493 69.6219 179.048C80.8127 185.51 91.889 187.696 100.987 184.67ZM117.221 156.965C115.672 164.897 112.663 172.062 108.248 177.953C112.739 172.21 115.751 165.031 117.221 156.965ZM17.2996 67.4907C8.59622 75.169 3.40749 86.6195 1.99891 99.8036C0.27941 115.898 4.20387 134.529 14.2123 151.864C24.2208 169.199 38.3936 181.913 53.1914 188.471C65.3135 193.844 77.8243 195.075 88.8256 191.377C65.267 197.361 35.2291 180.621 17.5226 149.953C-0.183916 119.284 0.338414 84.9012 17.2996 67.4907ZM61.2988 60.1055C53.5785 57.3453 45.8558 56.3646 38.6366 57.3828C45.9458 56.5048 53.6549 57.4811 61.2988 60.1055ZM21.359 147.738C39.1322 178.522 68.6606 195.658 91.3728 189.991C80.7153 193.592 68.4471 192.181 56.4771 186.586C42.0227 179.829 28.06 166.989 18.0487 149.649C8.03744 132.309 3.8992 113.797 5.27465 97.9009C6.4137 84.7367 11.3258 73.4067 19.7732 65.9776C3.50963 82.8135 3.58574 116.954 21.359 147.738ZM118.041 155.775C116.68 164.27 113.655 171.87 109.02 177.947C113.747 172.055 116.777 164.437 118.041 155.775ZM39.0272 56.7167C46.494 55.5694 54.6056 56.7543 62.7393 59.9905C54.7019 56.9215 46.6076 55.7413 39.0272 56.7167ZM118.802 154.691C117.665 163.676 114.677 171.639 109.888 177.828C114.786 171.864 117.78 163.88 118.802 154.691ZM22.2279 64.4778C14.0429 71.6485 9.41376 82.8531 8.55017 95.9978C7.51876 111.697 11.871 130.089 21.8851 147.434C31.8992 164.779 45.6516 177.744 59.763 184.701C71.5784 190.525 83.5965 192.119 93.8989 188.615C72.0439 193.961 43.0351 176.422 25.1954 145.523C7.35558 114.624 6.67131 80.7322 22.2279 64.4778ZM64.059 59.8741C55.5897 56.1639 47.1783 54.7654 39.5638 56.0247C47.3183 54.9716 55.7085 56.3657 64.059 59.8741ZM29.0318 143.308C46.9378 174.322 75.4165 192.268 96.4035 187.249C86.4678 190.654 74.7075 188.875 63.0491 182.816C49.2805 175.66 35.7383 162.569 25.7215 145.219C15.7046 127.87 11.1381 109.596 11.8255 94.0943C12.4074 80.9684 16.7471 69.8943 24.6632 62.9919C9.82345 78.6578 11.1257 112.294 29.0318 143.308ZM119.514 153.694C118.63 163.11 115.725 171.374 110.84 177.613C115.851 171.643 118.765 163.355 119.514 153.694ZM40.2264 55.3076C47.9024 53.9528 56.5374 55.5733 65.2782 59.755C56.6818 55.8134 48.0721 54.1963 40.2264 55.3076ZM120.187 152.773C119.578 162.565 116.797 171.078 111.868 177.314C116.942 171.396 119.736 162.857 120.187 152.773ZM27.0789 61.5201C19.4384 68.1439 15.3944 79.0819 15.1005 92.1904C14.7573 107.495 19.5383 125.65 29.5579 143.004C39.5775 160.359 52.9092 173.576 66.3354 180.932C77.8347 187.231 89.3292 189.198 98.8859 185.893C78.7779 190.58 50.84 172.221 32.8682 141.093C14.8963 109.965 12.9661 76.5908 27.0789 61.5201ZM66.4126 59.6325C57.4537 54.9813 48.6614 53.1314 40.9994 54.5667C48.8645 53.4157 57.6275 55.2642 66.4126 59.6325ZM120.828 151.917C120.513 162.04 117.892 170.754 112.966 176.941C118.056 171.127 120.696 162.385 120.828 151.917ZM41.871 53.8028C49.4517 52.3011 58.3427 54.3868 67.4741 59.506C58.55 54.7178 49.6924 52.6301 41.871 53.8028ZM121.441 151.118C121.435 161.53 119.007 170.404 114.127 176.502C119.193 170.838 121.646 161.935 121.441 151.118ZM68.4721 59.3747C59.2071 53.7884 50.2702 51.4616 42.8322 53.0167C50.5535 51.84 59.4527 54.1739 68.4721 59.3747ZM122.03 150.371C122.347 161.033 120.141 170.028 115.348 176.003C120.35 170.531 122.59 161.508 122.03 150.371ZM43.8754 52.2092C51.1146 50.6126 60.0492 53.1849 69.4141 59.238C60.3387 53.6324 51.4462 51.0459 43.8754 52.2092Z" stroke="url(#paint1_radial_137_1135)" stroke-width="1.5"/>
<defs>
<radialGradient id="paint0_radial_137_1135" cx="0" cy="0" r="1" gradientUnits="userSpaceOnUse" gradientTransform="translate(173.456 140.019) rotate(7.3621) scale(33.0271 38.6179)">
<stop stop-color="#D8D5FF"/>
<stop offset="1" stop-color="#C4C0FF" stop-opacity="0"/>
</radialGradient>
<radialGradient id="paint1_radial_137_1135" cx="0" cy="0" r="1" gradientUnits="userSpaceOnUse" gradientTransform="translate(87.1769 189.877) rotate(7.3621) scale(33.0271 38.6179)">
<stop stop-color="#D8D5FF"/>
<stop offset="1" stop-color="#C4C0FF" stop-opacity="0"/>
</radialGradient>
</defs>
</svg>
