<svg width="1426" height="539" viewBox="0 0 1426 539" fill="none" xmlns="http://www.w3.org/2000/svg">
<g opacity="0.75">
<mask id="mask0_198_1775" style="mask-type:alpha" maskUnits="userSpaceOnUse" x="706" y="73" width="480" height="480">
<rect width="480" height="480" transform="translate(706 73)" fill="url(#paint0_radial_198_1775)"/>
</mask>
<g mask="url(#mask0_198_1775)">
<g clip-path="url(#clip0_198_1775)">
<g clip-path="url(#clip1_198_1775)">
<line x1="706.5" y1="73" x2="706.5" y2="553" stroke="#EAECF0"/>
<line x1="738.5" y1="73" x2="738.5" y2="553" stroke="#EAECF0"/>
<line x1="770.5" y1="73" x2="770.5" y2="553" stroke="#EAECF0"/>
<line x1="802.5" y1="73" x2="802.5" y2="553" stroke="#EAECF0"/>
<line x1="834.5" y1="73" x2="834.5" y2="553" stroke="#EAECF0"/>
<line x1="866.5" y1="73" x2="866.5" y2="553" stroke="#EAECF0"/>
<line x1="898.5" y1="73" x2="898.5" y2="553" stroke="#EAECF0"/>
<line x1="930.5" y1="73" x2="930.5" y2="553" stroke="#EAECF0"/>
<line x1="962.5" y1="73" x2="962.5" y2="553" stroke="#EAECF0"/>
<line x1="994.5" y1="73" x2="994.5" y2="553" stroke="#EAECF0"/>
<line x1="1026.5" y1="73" x2="1026.5" y2="553" stroke="#EAECF0"/>
<line x1="1058.5" y1="73" x2="1058.5" y2="553" stroke="#EAECF0"/>
<line x1="1090.5" y1="73" x2="1090.5" y2="553" stroke="#EAECF0"/>
<line x1="1122.5" y1="73" x2="1122.5" y2="553" stroke="#EAECF0"/>
<line x1="1154.5" y1="73" x2="1154.5" y2="553" stroke="#EAECF0"/>
</g>
<rect x="706.5" y="73.5" width="479" height="479" stroke="#EAECF0"/>
<g clip-path="url(#clip2_198_1775)">
<line x1="706" y1="104.5" x2="1186" y2="104.5" stroke="#EAECF0"/>
<line x1="706" y1="136.5" x2="1186" y2="136.5" stroke="#EAECF0"/>
<line x1="706" y1="168.5" x2="1186" y2="168.5" stroke="#EAECF0"/>
<line x1="706" y1="200.5" x2="1186" y2="200.5" stroke="#EAECF0"/>
<line x1="706" y1="232.5" x2="1186" y2="232.5" stroke="#EAECF0"/>
<line x1="706" y1="264.5" x2="1186" y2="264.5" stroke="#EAECF0"/>
<line x1="706" y1="296.5" x2="1186" y2="296.5" stroke="#EAECF0"/>
<line x1="706" y1="328.5" x2="1186" y2="328.5" stroke="#EAECF0"/>
<line x1="706" y1="360.5" x2="1186" y2="360.5" stroke="#EAECF0"/>
<line x1="706" y1="392.5" x2="1186" y2="392.5" stroke="#EAECF0"/>
<line x1="706" y1="424.5" x2="1186" y2="424.5" stroke="#EAECF0"/>
<line x1="706" y1="456.5" x2="1186" y2="456.5" stroke="#EAECF0"/>
<line x1="706" y1="488.5" x2="1186" y2="488.5" stroke="#EAECF0"/>
<line x1="706" y1="520.5" x2="1186" y2="520.5" stroke="#EAECF0"/>
</g>
<rect x="706.5" y="73.5" width="479" height="479" stroke="#EAECF0"/>
</g>
</g>
</g>
<g opacity="0.75">
<mask id="mask1_198_1775" style="mask-type:alpha" maskUnits="userSpaceOnUse" x="-29" y="119" width="480" height="480">
<rect width="480" height="480" transform="translate(-29 119)" fill="url(#paint1_radial_198_1775)"/>
</mask>
<g mask="url(#mask1_198_1775)">
<g clip-path="url(#clip3_198_1775)">
<g clip-path="url(#clip4_198_1775)">
<line x1="3.5" y1="119" x2="3.5" y2="599" stroke="#EAECF0"/>
<line x1="35.5" y1="119" x2="35.5" y2="599" stroke="#EAECF0"/>
<line x1="67.5" y1="119" x2="67.5" y2="599" stroke="#EAECF0"/>
<line x1="99.5" y1="119" x2="99.5" y2="599" stroke="#EAECF0"/>
<line x1="131.5" y1="119" x2="131.5" y2="599" stroke="#EAECF0"/>
<line x1="163.5" y1="119" x2="163.5" y2="599" stroke="#EAECF0"/>
<line x1="195.5" y1="119" x2="195.5" y2="599" stroke="#EAECF0"/>
<line x1="227.5" y1="119" x2="227.5" y2="599" stroke="#EAECF0"/>
<line x1="259.5" y1="119" x2="259.5" y2="599" stroke="#EAECF0"/>
<line x1="291.5" y1="119" x2="291.5" y2="599" stroke="#EAECF0"/>
<line x1="323.5" y1="119" x2="323.5" y2="599" stroke="#EAECF0"/>
<line x1="355.5" y1="119" x2="355.5" y2="599" stroke="#EAECF0"/>
<line x1="387.5" y1="119" x2="387.5" y2="599" stroke="#EAECF0"/>
<line x1="419.5" y1="119" x2="419.5" y2="599" stroke="#EAECF0"/>
</g>
<rect x="-28.5" y="119.5" width="479" height="479" stroke="#EAECF0"/>
<g clip-path="url(#clip5_198_1775)">
<line x1="-29" y1="150.5" x2="451" y2="150.5" stroke="#EAECF0"/>
<line x1="-29" y1="182.5" x2="451" y2="182.5" stroke="#EAECF0"/>
<line x1="-29" y1="214.5" x2="451" y2="214.5" stroke="#EAECF0"/>
<line x1="-29" y1="246.5" x2="451" y2="246.5" stroke="#EAECF0"/>
<line x1="-29" y1="278.5" x2="451" y2="278.5" stroke="#EAECF0"/>
<line x1="-29" y1="310.5" x2="451" y2="310.5" stroke="#EAECF0"/>
<line x1="-29" y1="342.5" x2="451" y2="342.5" stroke="#EAECF0"/>
<line x1="-29" y1="374.5" x2="451" y2="374.5" stroke="#EAECF0"/>
<line x1="-29" y1="406.5" x2="451" y2="406.5" stroke="#EAECF0"/>
<line x1="-29" y1="438.5" x2="451" y2="438.5" stroke="#EAECF0"/>
<line x1="-29" y1="470.5" x2="451" y2="470.5" stroke="#EAECF0"/>
<line x1="-29" y1="502.5" x2="451" y2="502.5" stroke="#EAECF0"/>
<line x1="-29" y1="534.5" x2="451" y2="534.5" stroke="#EAECF0"/>
</g>
<rect x="-28.5" y="119.5" width="479" height="479" stroke="#EAECF0"/>
</g>
</g>
</g>
<g opacity="0.75">
<mask id="mask2_198_1775" style="mask-type:alpha" maskUnits="userSpaceOnUse" x="946" y="119" width="480" height="480">
<rect width="480" height="480" transform="translate(946 119)" fill="url(#paint2_radial_198_1775)"/>
</mask>
<g mask="url(#mask2_198_1775)">
<g clip-path="url(#clip6_198_1775)">
<g clip-path="url(#clip7_198_1775)">
<line x1="946.5" y1="119" x2="946.5" y2="599" stroke="#EAECF0"/>
<line x1="978.5" y1="119" x2="978.5" y2="599" stroke="#EAECF0"/>
<line x1="1010.5" y1="119" x2="1010.5" y2="599" stroke="#EAECF0"/>
<line x1="1042.5" y1="119" x2="1042.5" y2="599" stroke="#EAECF0"/>
<line x1="1074.5" y1="119" x2="1074.5" y2="599" stroke="#EAECF0"/>
<line x1="1106.5" y1="119" x2="1106.5" y2="599" stroke="#EAECF0"/>
<line x1="1138.5" y1="119" x2="1138.5" y2="599" stroke="#EAECF0"/>
<line x1="1170.5" y1="119" x2="1170.5" y2="599" stroke="#EAECF0"/>
<line x1="1202.5" y1="119" x2="1202.5" y2="599" stroke="#EAECF0"/>
<line x1="1234.5" y1="119" x2="1234.5" y2="599" stroke="#EAECF0"/>
<line x1="1266.5" y1="119" x2="1266.5" y2="599" stroke="#EAECF0"/>
<line x1="1298.5" y1="119" x2="1298.5" y2="599" stroke="#EAECF0"/>
<line x1="1330.5" y1="119" x2="1330.5" y2="599" stroke="#EAECF0"/>
<line x1="1362.5" y1="119" x2="1362.5" y2="599" stroke="#EAECF0"/>
<line x1="1394.5" y1="119" x2="1394.5" y2="599" stroke="#EAECF0"/>
</g>
<rect x="946.5" y="119.5" width="479" height="479" stroke="#EAECF0"/>
<g clip-path="url(#clip8_198_1775)">
<line x1="946" y1="150.5" x2="1426" y2="150.5" stroke="#EAECF0"/>
<line x1="946" y1="182.5" x2="1426" y2="182.5" stroke="#EAECF0"/>
<line x1="946" y1="214.5" x2="1426" y2="214.5" stroke="#EAECF0"/>
<line x1="946" y1="246.5" x2="1426" y2="246.5" stroke="#EAECF0"/>
<line x1="946" y1="278.5" x2="1426" y2="278.5" stroke="#EAECF0"/>
<line x1="946" y1="310.5" x2="1426" y2="310.5" stroke="#EAECF0"/>
<line x1="946" y1="342.5" x2="1426" y2="342.5" stroke="#EAECF0"/>
<line x1="946" y1="374.5" x2="1426" y2="374.5" stroke="#EAECF0"/>
<line x1="946" y1="406.5" x2="1426" y2="406.5" stroke="#EAECF0"/>
<line x1="946" y1="438.5" x2="1426" y2="438.5" stroke="#EAECF0"/>
<line x1="946" y1="470.5" x2="1426" y2="470.5" stroke="#EAECF0"/>
<line x1="946" y1="502.5" x2="1426" y2="502.5" stroke="#EAECF0"/>
<line x1="946" y1="534.5" x2="1426" y2="534.5" stroke="#EAECF0"/>
</g>
<rect x="946.5" y="119.5" width="479" height="479" stroke="#EAECF0"/>
</g>
</g>
</g>
<g opacity="0.75">
<mask id="mask3_198_1775" style="mask-type:alpha" maskUnits="userSpaceOnUse" x="453" y="0" width="480" height="480">
<rect width="480" height="480" transform="translate(453)" fill="url(#paint3_radial_198_1775)"/>
</mask>
<g mask="url(#mask3_198_1775)">
<g clip-path="url(#clip9_198_1775)">
<g clip-path="url(#clip10_198_1775)">
<line x1="453.5" x2="453.5" y2="480" stroke="#EAECF0"/>
<line x1="485.5" x2="485.5" y2="480" stroke="#EAECF0"/>
<line x1="517.5" x2="517.5" y2="480" stroke="#EAECF0"/>
<line x1="549.5" x2="549.5" y2="480" stroke="#EAECF0"/>
<line x1="581.5" x2="581.5" y2="480" stroke="#EAECF0"/>
<line x1="613.5" x2="613.5" y2="480" stroke="#EAECF0"/>
<line x1="645.5" x2="645.5" y2="480" stroke="#EAECF0"/>
<line x1="677.5" x2="677.5" y2="480" stroke="#EAECF0"/>
<line x1="709.5" x2="709.5" y2="480" stroke="#EAECF0"/>
<line x1="741.5" x2="741.5" y2="480" stroke="#EAECF0"/>
<line x1="773.5" x2="773.5" y2="480" stroke="#EAECF0"/>
<line x1="805.5" x2="805.5" y2="480" stroke="#EAECF0"/>
<line x1="837.5" x2="837.5" y2="480" stroke="#EAECF0"/>
<line x1="869.5" x2="869.5" y2="480" stroke="#EAECF0"/>
<line x1="901.5" x2="901.5" y2="480" stroke="#EAECF0"/>
</g>
<rect x="453.5" y="0.5" width="479" height="479" stroke="#EAECF0"/>
<g clip-path="url(#clip11_198_1775)">
<line x1="453" y1="31.5" x2="933" y2="31.5" stroke="#EAECF0"/>
<line x1="453" y1="63.5" x2="933" y2="63.5" stroke="#EAECF0"/>
<line x1="453" y1="95.5" x2="933" y2="95.5" stroke="#EAECF0"/>
<line x1="453" y1="127.5" x2="933" y2="127.5" stroke="#EAECF0"/>
<line x1="453" y1="159.5" x2="933" y2="159.5" stroke="#EAECF0"/>
<line x1="453" y1="191.5" x2="933" y2="191.5" stroke="#EAECF0"/>
<line x1="453" y1="223.5" x2="933" y2="223.5" stroke="#EAECF0"/>
<line x1="453" y1="255.5" x2="933" y2="255.5" stroke="#EAECF0"/>
<line x1="453" y1="287.5" x2="933" y2="287.5" stroke="#EAECF0"/>
<line x1="453" y1="319.5" x2="933" y2="319.5" stroke="#EAECF0"/>
<line x1="453" y1="351.5" x2="933" y2="351.5" stroke="#EAECF0"/>
<line x1="453" y1="383.5" x2="933" y2="383.5" stroke="#EAECF0"/>
<line x1="453" y1="415.5" x2="933" y2="415.5" stroke="#EAECF0"/>
<line x1="453" y1="447.5" x2="933" y2="447.5" stroke="#EAECF0"/>
<line x1="453" y1="479.5" x2="933" y2="479.5" stroke="#EAECF0"/>
</g>
<rect x="453.5" y="0.5" width="479" height="479" stroke="#EAECF0"/>
</g>
</g>
</g>
<g opacity="0.75">
<mask id="mask4_198_1775" style="mask-type:alpha" maskUnits="userSpaceOnUse" x="213" y="59" width="480" height="480">
<rect width="480" height="480" transform="translate(213 59)" fill="url(#paint4_radial_198_1775)"/>
</mask>
<g mask="url(#mask4_198_1775)">
<g clip-path="url(#clip12_198_1775)">
<g clip-path="url(#clip13_198_1775)">
<line x1="213.5" y1="59" x2="213.5" y2="539" stroke="#EAECF0"/>
<line x1="245.5" y1="59" x2="245.5" y2="539" stroke="#EAECF0"/>
<line x1="277.5" y1="59" x2="277.5" y2="539" stroke="#EAECF0"/>
<line x1="309.5" y1="59" x2="309.5" y2="539" stroke="#EAECF0"/>
<line x1="341.5" y1="59" x2="341.5" y2="539" stroke="#EAECF0"/>
<line x1="373.5" y1="59" x2="373.5" y2="539" stroke="#EAECF0"/>
<line x1="405.5" y1="59" x2="405.5" y2="539" stroke="#EAECF0"/>
<line x1="437.5" y1="59" x2="437.5" y2="539" stroke="#EAECF0"/>
<line x1="469.5" y1="59" x2="469.5" y2="539" stroke="#EAECF0"/>
<line x1="501.5" y1="59" x2="501.5" y2="539" stroke="#EAECF0"/>
<line x1="533.5" y1="59" x2="533.5" y2="539" stroke="#EAECF0"/>
<line x1="565.5" y1="59" x2="565.5" y2="539" stroke="#EAECF0"/>
<line x1="597.5" y1="59" x2="597.5" y2="539" stroke="#EAECF0"/>
<line x1="629.5" y1="59" x2="629.5" y2="539" stroke="#EAECF0"/>
<line x1="661.5" y1="59" x2="661.5" y2="539" stroke="#EAECF0"/>
</g>
<rect x="213.5" y="59.5" width="479" height="479" stroke="#EAECF0"/>
<g clip-path="url(#clip14_198_1775)">
<line x1="213" y1="90.5" x2="693" y2="90.5" stroke="#EAECF0"/>
<line x1="213" y1="122.5" x2="693" y2="122.5" stroke="#EAECF0"/>
<line x1="213" y1="154.5" x2="693" y2="154.5" stroke="#EAECF0"/>
<line x1="213" y1="186.5" x2="693" y2="186.5" stroke="#EAECF0"/>
<line x1="213" y1="218.5" x2="693" y2="218.5" stroke="#EAECF0"/>
<line x1="213" y1="250.5" x2="693" y2="250.5" stroke="#EAECF0"/>
<line x1="213" y1="282.5" x2="693" y2="282.5" stroke="#EAECF0"/>
<line x1="213" y1="314.5" x2="693" y2="314.5" stroke="#EAECF0"/>
<line x1="213" y1="346.5" x2="693" y2="346.5" stroke="#EAECF0"/>
<line x1="213" y1="378.5" x2="693" y2="378.5" stroke="#EAECF0"/>
<line x1="213" y1="410.5" x2="693" y2="410.5" stroke="#EAECF0"/>
<line x1="213" y1="442.5" x2="693" y2="442.5" stroke="#EAECF0"/>
<line x1="213" y1="474.5" x2="693" y2="474.5" stroke="#EAECF0"/>
<line x1="213" y1="506.5" x2="693" y2="506.5" stroke="#EAECF0"/>
<line x1="213" y1="538.5" x2="693" y2="538.5" stroke="#EAECF0"/>
</g>
<rect x="213.5" y="59.5" width="479" height="479" stroke="#EAECF0"/>
</g>
</g>
</g>
<defs>
<radialGradient id="paint0_radial_198_1775" cx="0" cy="0" r="1" gradientUnits="userSpaceOnUse" gradientTransform="translate(240 240) rotate(90) scale(240 240)">
<stop/>
<stop offset="1" stop-opacity="0"/>
</radialGradient>
<radialGradient id="paint1_radial_198_1775" cx="0" cy="0" r="1" gradientUnits="userSpaceOnUse" gradientTransform="translate(240 240) rotate(90) scale(240 240)">
<stop/>
<stop offset="1" stop-opacity="0"/>
</radialGradient>
<radialGradient id="paint2_radial_198_1775" cx="0" cy="0" r="1" gradientUnits="userSpaceOnUse" gradientTransform="translate(240 240) rotate(90) scale(240 240)">
<stop/>
<stop offset="1" stop-opacity="0"/>
</radialGradient>
<radialGradient id="paint3_radial_198_1775" cx="0" cy="0" r="1" gradientUnits="userSpaceOnUse" gradientTransform="translate(240 240) rotate(90) scale(240 240)">
<stop/>
<stop offset="1" stop-opacity="0"/>
</radialGradient>
<radialGradient id="paint4_radial_198_1775" cx="0" cy="0" r="1" gradientUnits="userSpaceOnUse" gradientTransform="translate(240 240) rotate(90) scale(240 240)">
<stop/>
<stop offset="1" stop-opacity="0"/>
</radialGradient>
<clipPath id="clip0_198_1775">
<rect width="480" height="480" fill="white" transform="translate(706 73)"/>
</clipPath>
<clipPath id="clip1_198_1775">
<rect x="706" y="73" width="480" height="480" fill="white"/>
</clipPath>
<clipPath id="clip2_198_1775">
<rect x="706" y="73" width="480" height="480" fill="white"/>
</clipPath>
<clipPath id="clip3_198_1775">
<rect width="480" height="480" fill="white" transform="translate(-29 119)"/>
</clipPath>
<clipPath id="clip4_198_1775">
<rect x="-29" y="119" width="480" height="480" fill="white"/>
</clipPath>
<clipPath id="clip5_198_1775">
<rect x="-29" y="119" width="480" height="480" fill="white"/>
</clipPath>
<clipPath id="clip6_198_1775">
<rect width="480" height="480" fill="white" transform="translate(946 119)"/>
</clipPath>
<clipPath id="clip7_198_1775">
<rect x="946" y="119" width="480" height="480" fill="white"/>
</clipPath>
<clipPath id="clip8_198_1775">
<rect x="946" y="119" width="480" height="480" fill="white"/>
</clipPath>
<clipPath id="clip9_198_1775">
<rect width="480" height="480" fill="white" transform="translate(453)"/>
</clipPath>
<clipPath id="clip10_198_1775">
<rect x="453" width="480" height="480" fill="white"/>
</clipPath>
<clipPath id="clip11_198_1775">
<rect x="453" width="480" height="480" fill="white"/>
</clipPath>
<clipPath id="clip12_198_1775">
<rect width="480" height="480" fill="white" transform="translate(213 59)"/>
</clipPath>
<clipPath id="clip13_198_1775">
<rect x="213" y="59" width="480" height="480" fill="white"/>
</clipPath>
<clipPath id="clip14_198_1775">
<rect x="213" y="59" width="480" height="480" fill="white"/>
</clipPath>
</defs>
</svg>
