<svg width="1869" height="890" viewBox="0 0 1869 890" fill="none" xmlns="http://www.w3.org/2000/svg">
<g opacity="0.75">
<mask id="mask0_199_2173" style="mask-type:alpha" maskUnits="userSpaceOnUse" x="935" y="198" width="480" height="480">
<rect width="480" height="480" transform="translate(935 198)" fill="url(#paint0_radial_199_2173)"/>
</mask>
<g mask="url(#mask0_199_2173)">
<g clip-path="url(#clip0_199_2173)">
<g clip-path="url(#clip1_199_2173)">
<line x1="935.5" y1="198" x2="935.5" y2="678" stroke="#EAECF0"/>
<line x1="967.5" y1="198" x2="967.5" y2="678" stroke="#EAECF0"/>
<line x1="999.5" y1="198" x2="999.5" y2="678" stroke="#EAECF0"/>
<line x1="1031.5" y1="198" x2="1031.5" y2="678" stroke="#EAECF0"/>
<line x1="1063.5" y1="198" x2="1063.5" y2="678" stroke="#EAECF0"/>
<line x1="1095.5" y1="198" x2="1095.5" y2="678" stroke="#EAECF0"/>
<line x1="1127.5" y1="198" x2="1127.5" y2="678" stroke="#EAECF0"/>
<line x1="1159.5" y1="198" x2="1159.5" y2="678" stroke="#EAECF0"/>
<line x1="1191.5" y1="198" x2="1191.5" y2="678" stroke="#EAECF0"/>
<line x1="1223.5" y1="198" x2="1223.5" y2="678" stroke="#EAECF0"/>
<line x1="1255.5" y1="198" x2="1255.5" y2="678" stroke="#EAECF0"/>
<line x1="1287.5" y1="198" x2="1287.5" y2="678" stroke="#EAECF0"/>
<line x1="1319.5" y1="198" x2="1319.5" y2="678" stroke="#EAECF0"/>
<line x1="1351.5" y1="198" x2="1351.5" y2="678" stroke="#EAECF0"/>
<line x1="1383.5" y1="198" x2="1383.5" y2="678" stroke="#EAECF0"/>
</g>
<rect x="935.5" y="198.5" width="479" height="479" stroke="#EAECF0"/>
<g clip-path="url(#clip2_199_2173)">
<line x1="935" y1="229.5" x2="1415" y2="229.5" stroke="#EAECF0"/>
<line x1="935" y1="261.5" x2="1415" y2="261.5" stroke="#EAECF0"/>
<line x1="935" y1="293.5" x2="1415" y2="293.5" stroke="#EAECF0"/>
<line x1="935" y1="325.5" x2="1415" y2="325.5" stroke="#EAECF0"/>
<line x1="935" y1="357.5" x2="1415" y2="357.5" stroke="#EAECF0"/>
<line x1="935" y1="389.5" x2="1415" y2="389.5" stroke="#EAECF0"/>
<line x1="935" y1="421.5" x2="1415" y2="421.5" stroke="#EAECF0"/>
<line x1="935" y1="453.5" x2="1415" y2="453.5" stroke="#EAECF0"/>
<line x1="935" y1="485.5" x2="1415" y2="485.5" stroke="#EAECF0"/>
<line x1="935" y1="517.5" x2="1415" y2="517.5" stroke="#EAECF0"/>
<line x1="935" y1="549.5" x2="1415" y2="549.5" stroke="#EAECF0"/>
<line x1="935" y1="581.5" x2="1415" y2="581.5" stroke="#EAECF0"/>
<line x1="935" y1="613.5" x2="1415" y2="613.5" stroke="#EAECF0"/>
<line x1="935" y1="645.5" x2="1415" y2="645.5" stroke="#EAECF0"/>
<line x1="935" y1="677.5" x2="1415" y2="677.5" stroke="#EAECF0"/>
</g>
<rect x="935.5" y="198.5" width="479" height="479" stroke="#EAECF0"/>
</g>
</g>
</g>
<g opacity="0.75">
<mask id="mask1_199_2173" style="mask-type:alpha" maskUnits="userSpaceOnUse" x="200" y="244" width="480" height="480">
<rect width="480" height="480" transform="translate(200 244)" fill="url(#paint1_radial_199_2173)"/>
</mask>
<g mask="url(#mask1_199_2173)">
<g clip-path="url(#clip3_199_2173)">
<g clip-path="url(#clip4_199_2173)">
<line x1="200.5" y1="244" x2="200.5" y2="724" stroke="#EAECF0"/>
<line x1="232.5" y1="244" x2="232.5" y2="724" stroke="#EAECF0"/>
<line x1="264.5" y1="244" x2="264.5" y2="724" stroke="#EAECF0"/>
<line x1="296.5" y1="244" x2="296.5" y2="724" stroke="#EAECF0"/>
<line x1="328.5" y1="244" x2="328.5" y2="724" stroke="#EAECF0"/>
<line x1="360.5" y1="244" x2="360.5" y2="724" stroke="#EAECF0"/>
<line x1="392.5" y1="244" x2="392.5" y2="724" stroke="#EAECF0"/>
<line x1="424.5" y1="244" x2="424.5" y2="724" stroke="#EAECF0"/>
<line x1="456.5" y1="244" x2="456.5" y2="724" stroke="#EAECF0"/>
<line x1="488.5" y1="244" x2="488.5" y2="724" stroke="#EAECF0"/>
<line x1="520.5" y1="244" x2="520.5" y2="724" stroke="#EAECF0"/>
<line x1="552.5" y1="244" x2="552.5" y2="724" stroke="#EAECF0"/>
<line x1="584.5" y1="244" x2="584.5" y2="724" stroke="#EAECF0"/>
<line x1="616.5" y1="244" x2="616.5" y2="724" stroke="#EAECF0"/>
<line x1="648.5" y1="244" x2="648.5" y2="724" stroke="#EAECF0"/>
</g>
<rect x="200.5" y="244.5" width="479" height="479" stroke="#EAECF0"/>
<g clip-path="url(#clip5_199_2173)">
<line x1="200" y1="275.5" x2="680" y2="275.5" stroke="#EAECF0"/>
<line x1="200" y1="307.5" x2="680" y2="307.5" stroke="#EAECF0"/>
<line x1="200" y1="339.5" x2="680" y2="339.5" stroke="#EAECF0"/>
<line x1="200" y1="371.5" x2="680" y2="371.5" stroke="#EAECF0"/>
<line x1="200" y1="403.5" x2="680" y2="403.5" stroke="#EAECF0"/>
<line x1="200" y1="435.5" x2="680" y2="435.5" stroke="#EAECF0"/>
<line x1="200" y1="467.5" x2="680" y2="467.5" stroke="#EAECF0"/>
<line x1="200" y1="499.5" x2="680" y2="499.5" stroke="#EAECF0"/>
<line x1="200" y1="531.5" x2="680" y2="531.5" stroke="#EAECF0"/>
<line x1="200" y1="563.5" x2="680" y2="563.5" stroke="#EAECF0"/>
<line x1="200" y1="595.5" x2="680" y2="595.5" stroke="#EAECF0"/>
<line x1="200" y1="627.5" x2="680" y2="627.5" stroke="#EAECF0"/>
<line x1="200" y1="659.5" x2="680" y2="659.5" stroke="#EAECF0"/>
<line x1="200" y1="691.5" x2="680" y2="691.5" stroke="#EAECF0"/>
<line x1="200" y1="723.5" x2="680" y2="723.5" stroke="#EAECF0"/>
</g>
<rect x="200.5" y="244.5" width="479" height="479" stroke="#EAECF0"/>
</g>
</g>
</g>
<g opacity="0.75">
<mask id="mask2_199_2173" style="mask-type:alpha" maskUnits="userSpaceOnUse" x="1175" y="244" width="480" height="480">
<rect width="480" height="480" transform="translate(1175 244)" fill="url(#paint2_radial_199_2173)"/>
</mask>
<g mask="url(#mask2_199_2173)">
<g clip-path="url(#clip6_199_2173)">
<g clip-path="url(#clip7_199_2173)">
<line x1="1175.5" y1="244" x2="1175.5" y2="724" stroke="#EAECF0"/>
<line x1="1207.5" y1="244" x2="1207.5" y2="724" stroke="#EAECF0"/>
<line x1="1239.5" y1="244" x2="1239.5" y2="724" stroke="#EAECF0"/>
<line x1="1271.5" y1="244" x2="1271.5" y2="724" stroke="#EAECF0"/>
<line x1="1303.5" y1="244" x2="1303.5" y2="724" stroke="#EAECF0"/>
<line x1="1335.5" y1="244" x2="1335.5" y2="724" stroke="#EAECF0"/>
<line x1="1367.5" y1="244" x2="1367.5" y2="724" stroke="#EAECF0"/>
<line x1="1399.5" y1="244" x2="1399.5" y2="724" stroke="#EAECF0"/>
<line x1="1431.5" y1="244" x2="1431.5" y2="724" stroke="#EAECF0"/>
<line x1="1463.5" y1="244" x2="1463.5" y2="724" stroke="#EAECF0"/>
<line x1="1495.5" y1="244" x2="1495.5" y2="724" stroke="#EAECF0"/>
<line x1="1527.5" y1="244" x2="1527.5" y2="724" stroke="#EAECF0"/>
<line x1="1559.5" y1="244" x2="1559.5" y2="724" stroke="#EAECF0"/>
<line x1="1591.5" y1="244" x2="1591.5" y2="724" stroke="#EAECF0"/>
<line x1="1623.5" y1="244" x2="1623.5" y2="724" stroke="#EAECF0"/>
</g>
<rect x="1175.5" y="244.5" width="479" height="479" stroke="#EAECF0"/>
<g clip-path="url(#clip8_199_2173)">
<line x1="1175" y1="275.5" x2="1655" y2="275.5" stroke="#EAECF0"/>
<line x1="1175" y1="307.5" x2="1655" y2="307.5" stroke="#EAECF0"/>
<line x1="1175" y1="339.5" x2="1655" y2="339.5" stroke="#EAECF0"/>
<line x1="1175" y1="371.5" x2="1655" y2="371.5" stroke="#EAECF0"/>
<line x1="1175" y1="403.5" x2="1655" y2="403.5" stroke="#EAECF0"/>
<line x1="1175" y1="435.5" x2="1655" y2="435.5" stroke="#EAECF0"/>
<line x1="1175" y1="467.5" x2="1655" y2="467.5" stroke="#EAECF0"/>
<line x1="1175" y1="499.5" x2="1655" y2="499.5" stroke="#EAECF0"/>
<line x1="1175" y1="531.5" x2="1655" y2="531.5" stroke="#EAECF0"/>
<line x1="1175" y1="563.5" x2="1655" y2="563.5" stroke="#EAECF0"/>
<line x1="1175" y1="595.5" x2="1655" y2="595.5" stroke="#EAECF0"/>
<line x1="1175" y1="627.5" x2="1655" y2="627.5" stroke="#EAECF0"/>
<line x1="1175" y1="659.5" x2="1655" y2="659.5" stroke="#EAECF0"/>
<line x1="1175" y1="691.5" x2="1655" y2="691.5" stroke="#EAECF0"/>
<line x1="1175" y1="723.5" x2="1655" y2="723.5" stroke="#EAECF0"/>
</g>
<rect x="1175.5" y="244.5" width="479" height="479" stroke="#EAECF0"/>
</g>
</g>
</g>
<g opacity="0.75">
<mask id="mask3_199_2173" style="mask-type:alpha" maskUnits="userSpaceOnUse" x="682" y="125" width="480" height="480">
<rect width="480" height="480" transform="translate(682 125)" fill="url(#paint3_radial_199_2173)"/>
</mask>
<g mask="url(#mask3_199_2173)">
<g clip-path="url(#clip9_199_2173)">
<g clip-path="url(#clip10_199_2173)">
<line x1="682.5" y1="125" x2="682.5" y2="605" stroke="#EAECF0"/>
<line x1="714.5" y1="125" x2="714.5" y2="605" stroke="#EAECF0"/>
<line x1="746.5" y1="125" x2="746.5" y2="605" stroke="#EAECF0"/>
<line x1="778.5" y1="125" x2="778.5" y2="605" stroke="#EAECF0"/>
<line x1="810.5" y1="125" x2="810.5" y2="605" stroke="#EAECF0"/>
<line x1="842.5" y1="125" x2="842.5" y2="605" stroke="#EAECF0"/>
<line x1="874.5" y1="125" x2="874.5" y2="605" stroke="#EAECF0"/>
<line x1="906.5" y1="125" x2="906.5" y2="605" stroke="#EAECF0"/>
<line x1="938.5" y1="125" x2="938.5" y2="605" stroke="#EAECF0"/>
<line x1="970.5" y1="125" x2="970.5" y2="605" stroke="#EAECF0"/>
<line x1="1002.5" y1="125" x2="1002.5" y2="605" stroke="#EAECF0"/>
<line x1="1034.5" y1="125" x2="1034.5" y2="605" stroke="#EAECF0"/>
<line x1="1066.5" y1="125" x2="1066.5" y2="605" stroke="#EAECF0"/>
<line x1="1098.5" y1="125" x2="1098.5" y2="605" stroke="#EAECF0"/>
<line x1="1130.5" y1="125" x2="1130.5" y2="605" stroke="#EAECF0"/>
</g>
<rect x="682.5" y="125.5" width="479" height="479" stroke="#EAECF0"/>
<g clip-path="url(#clip11_199_2173)">
<line x1="682" y1="156.5" x2="1162" y2="156.5" stroke="#EAECF0"/>
<line x1="682" y1="188.5" x2="1162" y2="188.5" stroke="#EAECF0"/>
<line x1="682" y1="220.5" x2="1162" y2="220.5" stroke="#EAECF0"/>
<line x1="682" y1="252.5" x2="1162" y2="252.5" stroke="#EAECF0"/>
<line x1="682" y1="284.5" x2="1162" y2="284.5" stroke="#EAECF0"/>
<line x1="682" y1="316.5" x2="1162" y2="316.5" stroke="#EAECF0"/>
<line x1="682" y1="348.5" x2="1162" y2="348.5" stroke="#EAECF0"/>
<line x1="682" y1="380.5" x2="1162" y2="380.5" stroke="#EAECF0"/>
<line x1="682" y1="412.5" x2="1162" y2="412.5" stroke="#EAECF0"/>
<line x1="682" y1="444.5" x2="1162" y2="444.5" stroke="#EAECF0"/>
<line x1="682" y1="476.5" x2="1162" y2="476.5" stroke="#EAECF0"/>
<line x1="682" y1="508.5" x2="1162" y2="508.5" stroke="#EAECF0"/>
<line x1="682" y1="540.5" x2="1162" y2="540.5" stroke="#EAECF0"/>
<line x1="682" y1="572.5" x2="1162" y2="572.5" stroke="#EAECF0"/>
<line x1="682" y1="604.5" x2="1162" y2="604.5" stroke="#EAECF0"/>
</g>
<rect x="682.5" y="125.5" width="479" height="479" stroke="#EAECF0"/>
</g>
</g>
</g>
<g opacity="0.75">
<mask id="mask4_199_2173" style="mask-type:alpha" maskUnits="userSpaceOnUse" x="442" y="184" width="480" height="480">
<rect width="480" height="480" transform="translate(442 184)" fill="url(#paint4_radial_199_2173)"/>
</mask>
<g mask="url(#mask4_199_2173)">
<g clip-path="url(#clip12_199_2173)">
<g clip-path="url(#clip13_199_2173)">
<line x1="442.5" y1="184" x2="442.5" y2="664" stroke="#EAECF0"/>
<line x1="474.5" y1="184" x2="474.5" y2="664" stroke="#EAECF0"/>
<line x1="506.5" y1="184" x2="506.5" y2="664" stroke="#EAECF0"/>
<line x1="538.5" y1="184" x2="538.5" y2="664" stroke="#EAECF0"/>
<line x1="570.5" y1="184" x2="570.5" y2="664" stroke="#EAECF0"/>
<line x1="602.5" y1="184" x2="602.5" y2="664" stroke="#EAECF0"/>
<line x1="634.5" y1="184" x2="634.5" y2="664" stroke="#EAECF0"/>
<line x1="666.5" y1="184" x2="666.5" y2="664" stroke="#EAECF0"/>
<line x1="698.5" y1="184" x2="698.5" y2="664" stroke="#EAECF0"/>
<line x1="730.5" y1="184" x2="730.5" y2="664" stroke="#EAECF0"/>
<line x1="762.5" y1="184" x2="762.5" y2="664" stroke="#EAECF0"/>
<line x1="794.5" y1="184" x2="794.5" y2="664" stroke="#EAECF0"/>
<line x1="826.5" y1="184" x2="826.5" y2="664" stroke="#EAECF0"/>
<line x1="858.5" y1="184" x2="858.5" y2="664" stroke="#EAECF0"/>
<line x1="890.5" y1="184" x2="890.5" y2="664" stroke="#EAECF0"/>
</g>
<rect x="442.5" y="184.5" width="479" height="479" stroke="#EAECF0"/>
<g clip-path="url(#clip14_199_2173)">
<line x1="442" y1="215.5" x2="922" y2="215.5" stroke="#EAECF0"/>
<line x1="442" y1="247.5" x2="922" y2="247.5" stroke="#EAECF0"/>
<line x1="442" y1="279.5" x2="922" y2="279.5" stroke="#EAECF0"/>
<line x1="442" y1="311.5" x2="922" y2="311.5" stroke="#EAECF0"/>
<line x1="442" y1="343.5" x2="922" y2="343.5" stroke="#EAECF0"/>
<line x1="442" y1="375.5" x2="922" y2="375.5" stroke="#EAECF0"/>
<line x1="442" y1="407.5" x2="922" y2="407.5" stroke="#EAECF0"/>
<line x1="442" y1="439.5" x2="922" y2="439.5" stroke="#EAECF0"/>
<line x1="442" y1="471.5" x2="922" y2="471.5" stroke="#EAECF0"/>
<line x1="442" y1="503.5" x2="922" y2="503.5" stroke="#EAECF0"/>
<line x1="442" y1="535.5" x2="922" y2="535.5" stroke="#EAECF0"/>
<line x1="442" y1="567.5" x2="922" y2="567.5" stroke="#EAECF0"/>
<line x1="442" y1="599.5" x2="922" y2="599.5" stroke="#EAECF0"/>
<line x1="442" y1="631.5" x2="922" y2="631.5" stroke="#EAECF0"/>
<line x1="442" y1="663.5" x2="922" y2="663.5" stroke="#EAECF0"/>
</g>
<rect x="442.5" y="184.5" width="479" height="479" stroke="#EAECF0"/>
</g>
</g>
</g>
<g filter="url(#filter0_f_199_2173)">
<path d="M510 248.5C402.163 256.887 244.774 312.611 200.5 344.796L229 690L1669 680.494V274.5C1584.8 280.337 1641 344.796 1266.5 248.5C893.253 152.526 780 227.5 510 248.5Z" fill="#26174F" fill-opacity="0.91"/>
</g>
<defs>
<filter id="filter0_f_199_2173" x="0.5" y="0.783325" width="1868.5" height="889.217" filterUnits="userSpaceOnUse" color-interpolation-filters="sRGB">
<feFlood flood-opacity="0" result="BackgroundImageFix"/>
<feBlend mode="normal" in="SourceGraphic" in2="BackgroundImageFix" result="shape"/>
<feGaussianBlur stdDeviation="100" result="effect1_foregroundBlur_199_2173"/>
</filter>
<radialGradient id="paint0_radial_199_2173" cx="0" cy="0" r="1" gradientUnits="userSpaceOnUse" gradientTransform="translate(240 240) rotate(90) scale(240 240)">
<stop/>
<stop offset="1" stop-opacity="0"/>
</radialGradient>
<radialGradient id="paint1_radial_199_2173" cx="0" cy="0" r="1" gradientUnits="userSpaceOnUse" gradientTransform="translate(240 240) rotate(90) scale(240 240)">
<stop/>
<stop offset="1" stop-opacity="0"/>
</radialGradient>
<radialGradient id="paint2_radial_199_2173" cx="0" cy="0" r="1" gradientUnits="userSpaceOnUse" gradientTransform="translate(240 240) rotate(90) scale(240 240)">
<stop/>
<stop offset="1" stop-opacity="0"/>
</radialGradient>
<radialGradient id="paint3_radial_199_2173" cx="0" cy="0" r="1" gradientUnits="userSpaceOnUse" gradientTransform="translate(240 240) rotate(90) scale(240 240)">
<stop/>
<stop offset="1" stop-opacity="0"/>
</radialGradient>
<radialGradient id="paint4_radial_199_2173" cx="0" cy="0" r="1" gradientUnits="userSpaceOnUse" gradientTransform="translate(240 240) rotate(90) scale(240 240)">
<stop/>
<stop offset="1" stop-opacity="0"/>
</radialGradient>
<clipPath id="clip0_199_2173">
<rect width="480" height="480" fill="white" transform="translate(935 198)"/>
</clipPath>
<clipPath id="clip1_199_2173">
<rect x="935" y="198" width="480" height="480" fill="white"/>
</clipPath>
<clipPath id="clip2_199_2173">
<rect x="935" y="198" width="480" height="480" fill="white"/>
</clipPath>
<clipPath id="clip3_199_2173">
<rect width="480" height="480" fill="white" transform="translate(200 244)"/>
</clipPath>
<clipPath id="clip4_199_2173">
<rect x="200" y="244" width="480" height="480" fill="white"/>
</clipPath>
<clipPath id="clip5_199_2173">
<rect x="200" y="244" width="480" height="480" fill="white"/>
</clipPath>
<clipPath id="clip6_199_2173">
<rect width="480" height="480" fill="white" transform="translate(1175 244)"/>
</clipPath>
<clipPath id="clip7_199_2173">
<rect x="1175" y="244" width="480" height="480" fill="white"/>
</clipPath>
<clipPath id="clip8_199_2173">
<rect x="1175" y="244" width="480" height="480" fill="white"/>
</clipPath>
<clipPath id="clip9_199_2173">
<rect width="480" height="480" fill="white" transform="translate(682 125)"/>
</clipPath>
<clipPath id="clip10_199_2173">
<rect x="682" y="125" width="480" height="480" fill="white"/>
</clipPath>
<clipPath id="clip11_199_2173">
<rect x="682" y="125" width="480" height="480" fill="white"/>
</clipPath>
<clipPath id="clip12_199_2173">
<rect width="480" height="480" fill="white" transform="translate(442 184)"/>
</clipPath>
<clipPath id="clip13_199_2173">
<rect x="442" y="184" width="480" height="480" fill="white"/>
</clipPath>
<clipPath id="clip14_199_2173">
<rect x="442" y="184" width="480" height="480" fill="white"/>
</clipPath>
</defs>
</svg>
